# xmcd
# 
# Track frame offsets:
#     182
#     22710
#     45457
#     66395
#     90050
#     123982
#     146725
#     167820
#     184672
#     207177
#     228330
#     262785
#     297342
# 
# Disc length: 4433
# 
# Revision: 10
# Processed by: cddbd v1.5.2PL0 Copyright (c) Steve Scherf et al.
# Submitted via: fre:ac v1.0.27
# 
DISCID=a8114f0d
DTITLE=Lyane Foly - Lumières
DYEAR=1994
DGENRE=Chanson
TTITLE0=Rêve orange
TTITLE1=Nuit halogène
TTITLE2=Va savoir
TTITLE3=Voler la nuit
TTITLE4=Stormy weather
TTITLE5=Les yeux doux
TTITLE6=Doucement
TTITLE7=J'irai tranquille
TTITLE8=Au fur et  à mesure
TTITLE9=Laisser pleurer les nuages
TTITLE10=Heures hindoues
TTITLE11=Les petites notes
TTITLE12=Misty
EXTD=YEAR: 1994
EXTT0=
EXTT1=
EXTT2=
EXTT3=
EXTT4=
EXTT5=
EXTT6=
EXTT7=
EXTT8=
EXTT9=
EXTT10=
EXTT11=
EXTT12=
PLAYORDER=
